<?xml version="1.0" standalone="no"?>
<!DOCTYPE svg PUBLIC "-//W3C//DTD SVG 20010904//EN"
 "http://www.w3.org/TR/2001/REC-SVG-20010904/DTD/svg10.dtd">
<svg version="1.0" xmlns="http://www.w3.org/2000/svg"
 width="300.000000pt" height="300.000000pt" viewBox="0 0 300.000000 300.000000"
 preserveAspectRatio="xMidYMid meet">

<g transform="translate(0.000000,300.000000) scale(0.100000,-0.100000)"
fill="#000000" stroke="none">
<path d="M952 2988 c-9 -9 -12 -96 -12 -330 l0 -318 -267 0 c-148 0 -273 -4
-279 -8 -6 -4 -97 -201 -203 -438 l-191 -432 0 -715 c0 -637 2 -717 16 -731
14 -14 162 -16 1484 -16 1322 0 1470 2 1484 16 14 14 16 94 16 731 l0 715
-191 432 c-106 237 -197 434 -203 438 -6 4 -131 8 -278 8 l-268 0 0 130 0 129
-200 201 -201 200 -347 0 c-257 0 -351 -3 -360 -12z m638 -246 c0 -228 -16
-212 206 -212 l174 0 0 -330 0 -330 -470 0 -470 0 0 520 0 520 280 0 280 0 0
-168z m300 -114 c0 -5 -45 -8 -100 -8 l-100 0 0 107 0 108 100 -100 c55 -55
100 -103 100 -107z m-952 -565 l-3 -188 -134 -3 c-79 -1 -140 -7 -148 -14 -18
-14 -16 -43 3 -62 14 -14 104 -16 844 -16 740 0 830 2 844 16 19 19 21 48 3
62 -8 7 -69 13 -148 14 l-134 3 -3 188 -2 187 243 0 244 0 47 -102 c25 -57
100 -224 166 -373 l119 -270 -689 -3 c-380 -1 -1000 -1 -1380 0 l-689 3 119
270 c66 149 141 316 166 373 l47 102 244 0 243 0 -2 -187z m1972 -1313 l0
-660 -1410 0 -1410 0 0 660 0 660 1410 0 1410 0 0 -660z"/>
<path d="M1137 2613 c-15 -14 -7 -63 12 -73 11 -5 85 -10 170 -10 123 0 152 3
165 16 19 18 21 45 4 62 -13 13 -339 18 -351 5z"/>
<path d="M1148 2429 c-25 -14 -24 -65 1 -79 13 -6 142 -10 351 -10 209 0 338
4 351 10 12 7 19 21 19 40 0 19 -7 33 -19 40 -26 14 -679 13 -703 -1z"/>
<path d="M1142 2238 c-17 -17 -15 -65 4 -72 9 -3 168 -6 354 -6 186 0 345 3
354 6 19 7 21 55 4 72 -17 17 -699 17 -716 0z"/>
<path d="M1142 2048 c-15 -15 -15 -51 0 -66 17 -17 699 -17 716 0 7 7 12 21
12 33 0 12 -5 26 -12 33 -17 17 -699 17 -716 0z"/>
<path d="M1466 1228 c-10 -13 -16 -43 -16 -73 0 -56 20 -95 50 -95 30 0 50 39
50 95 0 56 -20 95 -50 95 -10 0 -26 -10 -34 -22z"/>
<path d="M1106 1084 c-26 -25 -19 -47 32 -97 52 -51 85 -59 102 -27 16 30 5
53 -45 99 -48 45 -65 49 -89 25z"/>
<path d="M1805 1059 c-50 -46 -61 -69 -45 -99 18 -33 52 -24 103 28 50 51 57
71 31 96 -24 24 -41 20 -89 -25z"/>
<path d="M1428 956 c-95 -26 -167 -94 -194 -182 -27 -91 -16 -162 40 -254 25
-41 35 -70 39 -117 9 -110 61 -153 187 -153 126 0 178 43 187 153 5 48 14 76
44 126 72 120 63 243 -26 349 -57 67 -186 104 -277 78z m167 -111 c51 -30 84
-82 92 -144 4 -39 0 -55 -26 -101 -17 -30 -38 -72 -48 -92 l-16 -38 -97 0 -97
0 -16 38 c-10 20 -31 62 -48 92 -27 47 -30 62 -25 104 11 100 84 165 185 166
40 0 65 -6 96 -25z m-15 -479 c0 -25 -94 -36 -145 -16 -45 17 -17 30 66 30 61
0 79 -3 79 -14z"/>
<path d="M952 718 c-15 -15 -15 -51 0 -66 7 -7 40 -12 78 -12 70 0 90 10 90
45 0 35 -20 45 -90 45 -38 0 -71 -5 -78 -12z"/>
<path d="M1892 718 c-7 -7 -12 -21 -12 -33 0 -35 20 -45 90 -45 70 0 90 10 90
45 0 35 -20 45 -90 45 -38 0 -71 -5 -78 -12z"/>
<path d="M1131 385 c-42 -46 -50 -72 -29 -93 23 -23 54 -12 103 38 45 45 48
51 37 75 -19 41 -61 34 -111 -20z"/>
<path d="M1758 405 c-11 -24 -8 -30 37 -75 49 -50 80 -61 103 -38 21 21 13 47
-29 93 -50 54 -92 61 -111 20z"/>
</g>
</svg>
